<svg xmlns="http://www.w3.org/2000/svg" viewBox="0 0 100 100"><path transform="translate(100,0) scale(-1,1)" d="M84.351,94.598c-2.698,0-5.245-1.059-7.169-2.982c-0.194-0.194-0.381-0.397-0.557-0.604l-7.293-8.379    c-0.062-0.058-0.088-0.079-0.111-0.103c-0.075-0.074-0.139-0.154-0.194-0.241L44.285,53.854l-0.272,0.26    c-0.917,0.875-2.119,1.357-3.386,1.357c-1.312,0-2.545-0.511-3.471-1.437c-0.396-0.395-0.719-0.851-0.962-1.354l-0.22-0.457    l-2.626,2.627l0.054,0.2c0.611,2.296-0.048,4.761-1.722,6.435c-1.257,1.257-2.931,1.949-4.713,1.949s-3.456-0.692-4.713-1.949    L7.353,46.582c-2.598-2.599-2.598-6.828,0-9.426c1.258-1.258,2.932-1.951,4.712-1.951c0.58,0,1.162,0.076,1.726,0.226l0.2,0.053    l21.494-21.494l-0.053-0.2c-0.61-2.296,0.049-4.762,1.722-6.435c1.259-1.259,2.934-1.952,4.713-1.952    c1.78,0,3.454,0.694,4.713,1.952l14.901,14.901c1.26,1.26,1.953,2.934,1.953,4.713s-0.693,3.453-1.953,4.713    c-1.256,1.257-2.929,1.948-4.712,1.948c-0.578,0-1.157-0.076-1.723-0.227l-0.2-0.053l-2.633,2.633l0.462,0.218    c0.504,0.239,0.961,0.56,1.356,0.954c0.927,0.927,1.438,2.161,1.438,3.473c0,1.268-0.482,2.47-1.358,3.386l-0.26,0.272    L82.103,68.93l0.043,0.021c0.143,0.069,0.27,0.159,0.378,0.267c0.066,0.065,0.126,0.138,0.178,0.217l0.026,0.04l8.243,7.188    c0.783,0.666,1.472,1.458,2.049,2.353c1.975,3.052,2.107,7.069,0.335,10.234c-1.621,2.893-4.383,4.805-7.576,5.247    C85.305,94.565,84.825,94.598,84.351,94.598z M72.129,81.59l6.609,7.595c0.14,0.166,0.276,0.314,0.418,0.456    c1.397,1.395,3.245,2.164,5.206,2.164c0.343,0,0.692-0.024,1.035-0.072c2.32-0.321,4.332-1.722,5.521-3.845    c1.253-2.238,1.155-5.193-0.244-7.354c-0.43-0.668-0.941-1.256-1.518-1.746l-7.598-6.628L72.129,81.59z M67.506,76.278l2.785,3.2    l9.158-9.158l-3.197-2.788L67.506,76.278z M46.26,51.87l19.407,22.297l8.475-8.475L51.868,46.263L46.26,51.87z M12.065,37.997    c-1.034,0-2.006,0.402-2.737,1.133c-0.73,0.73-1.133,1.703-1.133,2.738c0,1.036,0.403,2.008,1.133,2.738l14.9,14.901    c0.731,0.731,1.703,1.132,2.739,1.132c1.035,0,2.008-0.402,2.739-1.132c0.73-0.73,1.132-1.702,1.132-2.737    c0-1.035-0.402-2.008-1.132-2.737L14.802,39.13C14.071,38.4,13.099,37.997,12.065,37.997z M50.56,38.514    c-0.555,0-1.078,0.211-1.473,0.594l-9.979,9.979c-0.387,0.397-0.6,0.919-0.6,1.473c0,0.565,0.22,1.097,0.621,1.497    c0.399,0.4,0.93,0.62,1.496,0.62c0.565,0,1.097-0.22,1.496-0.619l9.936-9.935c0.4-0.398,0.62-0.929,0.62-1.495    c0-0.566-0.22-1.098-0.62-1.498C51.659,38.733,51.127,38.514,50.56,38.514z M16.524,36.902l15.41,15.411l20.377-20.378    L36.9,16.524L16.524,36.902z M41.867,8.195c-1.034,0-2.006,0.403-2.738,1.134c-1.509,1.509-1.509,3.965,0,5.474l14.902,14.902    c0.731,0.73,1.703,1.132,2.738,1.132s2.007-0.402,2.738-1.132c0.731-0.731,1.134-1.704,1.134-2.738    c0-1.034-0.403-2.006-1.134-2.738L44.606,9.329C43.874,8.598,42.902,8.195,41.867,8.195z"/></svg>